<svg version="1.1" id="Layer_1" xmlns="http://www.w3.org/2000/svg" xmlns:xlink="http://www.w3.org/1999/xlink" x="0px" y="0px"
	 width="100%" viewBox="0 0 1024 1024" enable-background="new 0 0 1024 1024" xml:space="preserve">
<path fill="#ffffff" opacity="1.000000" stroke="none" 
	d="
M434.071777,799.756714 
	C432.148987,793.491577 430.736511,787.487061 428.168457,781.853394 
	C422.331696,769.048767 412.360474,763.747559 398.536469,766.733521 
	C368.757446,773.165649 338.630402,775.128601 308.258270,774.331360 
	C286.946045,773.771912 268.142456,758.318665 264.060150,737.623779 
	C262.385101,729.132263 264.709320,720.768005 266.115082,712.422363 
	C266.252655,711.605530 266.372070,710.767029 266.656799,709.996521 
	C270.604156,699.313782 267.370148,690.533691 260.538513,681.904602 
	C252.645233,671.934509 252.796890,666.892883 258.836182,655.971313 
	C247.744308,648.827271 245.130814,641.640076 248.477524,628.484314 
	C250.117523,622.037537 253.106888,616.006165 254.080978,609.362122 
	C254.840652,604.180542 253.786407,602.335876 248.679688,601.228577 
	C238.796082,599.085510 228.588135,598.803772 218.870392,595.554749 
	C206.027466,591.260681 201.320190,584.741333 199.436676,571.366882 
	C197.725861,559.218750 200.759323,548.825317 206.900421,538.632996 
	C221.170151,514.949768 235.397064,491.239624 248.829132,467.058594 
	C255.650894,454.777710 257.741791,441.928680 256.148376,428.068207 
	C254.736282,415.785065 255.792450,403.389893 256.915253,391.153656 
	C258.937225,369.118866 263.058014,347.414307 270.534821,326.485535 
	C298.235565,248.946625 350.938446,195.909576 427.712830,166.706635 
	C452.243347,157.375885 477.740173,152.283951 503.974213,150.549255 
	C577.439941,145.691391 643.476013,165.146622 700.558044,211.888748 
	C744.237244,247.655884 771.954285,293.910675 785.321899,348.748932 
	C792.144043,376.735413 794.601990,405.192841 793.095276,433.874878 
	C790.070801,491.448730 770.833557,543.300415 736.913940,589.857483 
	C726.042603,604.779175 714.348877,619.188782 706.600769,636.191345 
	C699.534180,651.698364 696.261597,667.991882 695.292480,684.936218 
	C693.044556,724.237305 702.935364,761.421753 714.596375,798.321472 
	C717.453552,807.362732 720.523376,816.336792 723.470764,825.349792 
	C725.775818,832.398376 723.868347,836.878235 717.743225,838.914001 
	C710.809265,841.218445 706.546692,839.154541 704.196106,832.046631 
	C694.380981,802.367371 684.154297,772.781067 678.382202,741.968262 
	C674.445068,720.950684 674.068237,699.711548 675.551453,678.365662 
	C677.109619,655.940796 682.244202,634.577637 693.960205,615.313843 
	C700.955933,603.811218 709.278931,593.118469 716.953674,582.025940 
	C740.264709,548.333801 758.619507,512.470886 767.016602,471.903290 
	C775.051514,433.085724 773.603577,394.777679 764.231567,356.367371 
	C753.072144,310.631897 731.015137,271.209290 697.237976,238.614624 
	C663.846863,206.392487 624.167419,185.727539 578.592407,176.312973 
	C552.433716,170.909317 526.137817,170.221985 499.642944,172.201569 
	C462.847168,174.950836 428.632050,185.833954 396.787170,204.427338 
	C361.020416,225.310638 333.094360,253.947327 311.867828,289.370178 
	C294.166138,318.910706 283.117737,350.814575 278.678162,384.846802 
	C277.011292,397.624634 275.636902,410.546112 277.006439,423.634003 
	C279.235260,444.933777 276.385620,465.063995 264.661194,483.999664 
	C251.694931,504.940979 239.823135,526.578064 226.852066,547.545654 
	C224.668137,551.075989 222.243896,554.492249 220.985077,558.532654 
	C218.620041,566.123779 220.842972,571.574524 227.797073,575.250793 
	C234.419098,578.751526 241.780899,579.318909 248.951141,580.643494 
	C251.563324,581.126160 254.231033,581.353699 256.809174,581.967468 
	C269.947876,585.095337 276.722260,596.414734 273.947235,610.794128 
	C272.500397,618.291321 270.929779,625.778381 269.007904,633.164062 
	C268.143860,636.484436 269.383484,637.799072 272.148712,638.692322 
	C276.104156,639.969971 280.101715,641.146729 283.975433,642.640930 
	C289.353394,644.715332 291.624939,648.334534 291.526245,653.715393 
	C291.426422,659.159363 288.016296,661.640076 283.412079,663.166626 
	C276.168793,665.568054 275.209106,666.815674 279.870209,672.546570 
	C290.203705,685.251831 291.094543,698.967163 286.571564,713.888672 
	C285.471497,717.517883 285.188171,721.389954 284.450806,725.134888 
	C281.250671,741.387451 295.448029,752.048584 306.090729,753.621094 
	C321.561920,755.907104 336.973206,753.752380 352.406311,753.038452 
	C368.717957,752.283997 384.521423,747.971680 400.709412,746.273193 
	C422.005371,744.038757 439.733826,754.054138 447.379944,774.257812 
	C454.857147,794.015198 459.654266,814.620972 464.796570,835.086670 
	C465.919250,839.554810 462.729126,843.812378 457.880951,845.073303 
	C451.628204,846.699524 446.812744,844.847961 445.159851,839.520142 
	C442.452179,830.792603 440.186493,821.927734 437.749817,813.116455 
	C436.554382,808.793640 435.393616,804.461243 434.071777,799.756714 
z"/>
<path fill="#ffffff" opacity="1.000000" stroke="none" 
	d="
M531.309753,321.786713 
	C529.964355,325.445679 533.008057,324.357849 534.286194,324.560516 
	C542.174377,325.811035 550.051514,327.115845 557.603027,329.777039 
	C576.369141,336.390289 592.129517,346.332581 598.650024,366.685669 
	C601.142456,374.465485 602.610962,382.453369 604.335571,390.394623 
	C606.132141,398.667206 607.806824,406.966492 609.509094,415.259338 
	C612.733398,430.966156 622.706421,440.988708 636.744873,447.551147 
	C645.122009,451.467224 654.151306,453.079742 663.164062,454.579559 
	C674.566650,456.477081 678.430969,459.483063 680.050964,468.416779 
	C681.437378,476.062531 676.255798,485.829376 668.579102,490.113495 
	C664.067017,492.631561 658.943970,493.493835 653.632385,495.397797 
	C657.784424,500.664154 661.033264,505.974365 662.345032,512.254822 
	C667.029663,534.685242 654.388062,555.207214 631.309448,562.171753 
	C622.535950,564.819458 613.520447,566.231140 604.289734,566.231323 
	C545.294434,566.232605 486.297791,566.521851 427.304749,566.180481 
	C412.981140,566.097656 398.702087,563.478149 386.190857,555.747131 
	C369.467163,545.413269 362.398041,520.633728 370.669739,503.289185 
	C372.051788,500.391357 374.123962,498.032135 376.172028,495.364960 
	C373.860046,492.941803 370.685486,493.123840 367.952484,492.314178 
	C355.336395,488.576538 348.139648,478.533783 349.577637,466.781494 
	C350.364105,460.354065 353.903381,456.323578 359.946899,454.800201 
	C366.539703,453.138367 373.310883,452.197632 379.941406,450.669556 
	C401.776489,445.637268 416.499786,433.278107 421.639679,410.638000 
	C424.027679,400.119293 427.030304,389.695007 428.432953,379.017487 
	C431.992249,351.922516 448.716125,337.109222 473.387390,329.249603 
	C481.929199,326.528412 490.843323,325.462158 500.297455,323.064575 
	C491.427704,319.503021 484.331329,314.536407 477.872894,308.463348 
	C468.745087,299.880219 463.612549,289.939026 464.571899,277.041260 
	C465.091339,270.057739 465.796631,263.170227 467.506897,256.378479 
	C472.823364,235.265701 487.714172,225.366119 507.677277,222.973557 
	C526.271912,220.744965 542.850952,226.299042 553.744568,242.845490 
	C562.956360,256.837341 565.442017,272.871368 562.783569,288.875916 
	C560.238953,304.195312 547.620239,312.442596 535.224426,320.012238 
	C534.098633,320.699768 532.791199,321.089874 531.309753,321.786713 
M418.011047,456.653473 
	C403.753632,463.809631 388.710571,468.780975 372.260406,472.219482 
	C375.397552,475.232147 378.310852,475.530151 381.268433,475.628082 
	C387.264496,475.826538 393.218994,475.476593 399.180359,474.678864 
	C413.600525,472.749176 427.734253,469.862488 440.616638,462.723816 
	C448.625549,458.285736 455.852448,453.025513 458.172668,443.360779 
	C459.623291,437.318146 459.928650,431.264160 459.284119,425.050842 
	C458.304932,415.611542 457.791626,406.104248 459.800140,396.724792 
	C460.626770,392.864685 462.467224,389.449219 466.996368,388.744781 
	C471.599609,388.028778 474.693146,390.476959 476.946198,394.024170 
	C478.076660,395.803925 478.843445,397.945892 479.258942,400.027008 
	C481.753204,412.520874 480.990387,425.165649 481.172211,437.804535 
	C481.464661,458.131958 470.426849,470.097260 453.499023,478.366272 
	C452.217407,478.992371 450.718567,479.470581 450.079285,481.271790 
	C450.815857,481.666229 451.481934,482.176636 452.233551,482.402954 
	C471.281128,488.138794 489.277740,496.406799 506.972839,505.343384 
	C510.402405,507.075409 513.161316,507.284424 516.726196,505.691162 
	C534.045959,497.950409 551.330017,490.098785 569.444458,484.291260 
	C572.186523,483.412170 575.226624,483.132690 578.018188,481.044006 
	C575.064941,479.374115 572.516602,477.867401 569.909424,476.470398 
	C559.214172,470.739532 551.675598,462.672241 549.957031,450.117157 
	C548.073303,436.356079 548.436523,422.534363 548.967346,408.735046 
	C549.150513,403.973511 550.184509,399.161377 552.657837,394.862427 
	C554.681030,391.345734 557.765747,389.563660 561.731628,389.814667 
	C565.629578,390.061401 568.091553,392.484344 569.293396,396.120575 
	C570.659912,400.255188 571.168213,404.541718 571.288147,408.880493 
	C571.550537,418.371613 569.737183,427.782257 570.305237,437.297882 
	C570.852234,446.460754 574.039307,454.056885 581.916199,459.348724 
	C602.574158,473.227020 625.978943,476.220947 650.026733,476.493469 
	C652.340820,476.519745 655.195374,476.045258 656.977539,473.134186 
	C655.766724,472.772736 655.013367,472.495483 654.236694,472.323700 
	C639.227051,469.003418 624.792480,464.052551 610.981262,457.271790 
	C601.144287,452.442200 594.911865,444.726868 591.538025,434.350983 
	C585.811646,416.740265 583.323181,398.423859 579.744934,380.366272 
	C576.797852,365.493774 568.084473,356.415009 554.426086,351.525787 
	C529.837463,342.723999 505.058044,342.411957 480.030792,350.005768 
	C463.323944,355.075012 453.050476,365.166077 450.146881,382.956207 
	C447.581177,398.675873 443.736511,414.173553 439.326416,429.524780 
	C435.936798,441.323761 429.913422,450.740936 418.011047,456.653473 
M466.159058,509.453094 
	C454.490356,504.090576 442.449738,499.791412 429.949921,496.811340 
	C418.684357,494.125610 407.822479,494.612549 397.799225,501.110992 
	C390.382568,505.919556 387.139069,512.708374 388.241058,521.556702 
	C389.283600,529.927490 393.102722,536.459412 400.991241,539.881897 
	C409.767303,543.689392 419.147308,545.505798 428.636230,545.569580 
	C461.787598,545.792358 494.941467,545.650391 528.094360,545.640869 
	C530.334473,545.640259 532.601379,545.770325 535.409119,544.681885 
	C512.556091,532.090881 490.099060,520.156067 466.159058,509.453094 
M563.706055,535.730713 
	C582.828125,547.486023 603.229187,548.046692 624.250854,542.472595 
	C636.208496,539.302002 643.615234,530.367432 643.647217,519.550720 
	C643.677917,509.168823 636.102051,500.646973 624.235596,497.244995 
	C616.352905,494.985168 608.582520,495.156006 600.620972,496.772705 
	C581.238220,500.708679 563.443787,508.971619 545.450562,516.696106 
	C542.555542,517.938904 539.312866,518.738831 536.461975,521.438049 
	C545.696960,526.296387 554.364014,530.856018 563.706055,535.730713 
M533.632935,295.157196 
	C542.209656,287.040070 544.232727,276.752563 542.087646,265.819092 
	C538.875183,249.444687 528.558105,242.479858 510.333435,243.300766 
	C497.467529,243.880280 488.228851,251.555161 485.763611,264.090057 
	C485.130341,267.310181 485.197174,270.719910 485.322906,274.028076 
	C485.783386,286.142670 491.830017,295.129852 502.483704,300.130554 
	C513.252075,305.185028 523.887878,303.832367 533.632935,295.157196 
z"/>
</svg>